<svg width="123" height="141" viewBox="0 0 123 141" fill="none" xmlns="http://www.w3.org/2000/svg">
<path d="M61.4939 0C56.6344 0 52.7083 3.93809 52.7083 8.8125V14.1C32.6662 18.1758 17.5659 35.966 17.5659 57.2812V62.4586C17.5659 75.402 12.8162 87.9047 4.25027 97.5984L2.2186 99.8842C-0.0876203 102.473 -0.63672 106.191 0.763484 109.358C2.16369 112.525 5.32101 114.562 8.78034 114.562H114.208C117.667 114.562 120.797 112.525 122.224 109.358C123.652 106.191 123.076 102.473 120.769 99.8842L118.738 97.5984C110.172 87.9047 105.422 75.4295 105.422 62.4586V57.2812C105.422 35.966 90.3217 18.1758 70.2795 14.1V8.8125C70.2795 3.93809 66.3535 0 61.4939 0ZM73.9311 135.85C77.2257 132.546 79.0651 128.057 79.0651 123.375H61.4939H43.9227C43.9227 128.057 45.7622 132.546 49.0568 135.85C52.3514 139.155 56.8266 141 61.4939 141C66.1613 141 70.6365 139.155 73.9311 135.85Z" fill="white"/>
</svg>
