<svg width="157" height="141" viewBox="0 0 157 141" fill="none" xmlns="http://www.w3.org/2000/svg">
<path d="M6.56674 0C2.92767 0 0 2.94668 0 6.60938C0 10.2721 2.92767 13.2188 6.56674 13.2188H20.822L37.3209 100.38C37.9229 103.492 40.6317 105.75 43.7782 105.75H133.524C137.163 105.75 140.09 102.803 140.09 99.1406C140.09 95.4779 137.163 92.5312 133.524 92.5312H49.2231L46.7333 79.3125H133.469C137.382 79.3125 140.829 76.6963 141.896 72.8959L156.671 20.0209C158.231 14.4029 154.045 8.8125 148.244 8.8125H33.3809L32.7242 5.37012C32.1223 2.2582 29.4135 0 26.2669 0H6.56674ZM48.1561 141C55.4068 141 61.2895 135.079 61.2895 127.781C61.2895 120.483 55.4068 114.562 48.1561 114.562C40.9053 114.562 35.0226 120.483 35.0226 127.781C35.0226 135.079 40.9053 141 48.1561 141ZM140.09 127.781C140.09 120.483 134.208 114.562 126.957 114.562C119.706 114.562 113.823 120.483 113.823 127.781C113.823 135.079 119.706 141 126.957 141C134.208 141 140.09 135.079 140.09 127.781ZM68.9507 44.0625C68.9507 41.0332 71.4132 38.5547 74.423 38.5547H86.462V26.4375C86.462 23.4082 88.9245 20.9297 91.9343 20.9297C94.944 20.9297 97.4066 23.4082 97.4066 26.4375V38.5547H109.446C112.455 38.5547 114.918 41.0332 114.918 44.0625C114.918 47.0918 112.455 49.5703 109.446 49.5703H97.4066V61.6875C97.4066 64.7168 94.944 67.1953 91.9343 67.1953C88.9245 67.1953 86.462 64.7168 86.462 61.6875V49.5703H74.423C71.4132 49.5703 68.9507 47.0918 68.9507 44.0625Z" fill="white"/>
</svg>
