<svg width="189" height="166" viewBox="0 0 189 166" fill="none" xmlns="http://www.w3.org/2000/svg">
<path d="M53.0175 65.4163C46.461 65.4163 41.164 70.6674 41.164 76.9169C41.164 83.7951 46.461 89.0831 53.0175 89.0831C59.574 89.0831 64.5377 83.8135 64.5377 77.2497C64.5377 70.6859 59.611 65.4163 53.0175 65.4163ZM94.5049 65.0835C87.9299 65.0835 82.9848 70.3531 82.9848 76.9169C82.9848 83.4807 88.2633 88.4175 94.5049 88.4175C100.747 88.4175 106.025 83.1479 106.025 76.9169C106.025 70.6859 101.098 65.0835 94.5049 65.0835ZM135.992 65.4163C129.417 65.4163 124.472 70.6859 124.472 77.2497C124.472 83.8135 129.751 89.0831 135.992 89.0831C142.567 89.0831 147.842 83.8135 147.842 77.2497C147.846 70.6674 142.586 65.4163 135.992 65.4163ZM94.5049 0C42.1271 0 0.00989888 34.4351 0.00989888 76.9169C0.00989888 94.5264 7.38503 110.66 19.609 123.622C14.1008 138.229 2.61768 150.572 2.43247 150.709C-0.0212166 153.298 -0.669088 157.088 0.71963 160.324C1.83164 163.855 5.00321 166 8.56668 166C31.344 166 48.9799 156.478 60.0926 148.897C70.7867 152.225 82.3773 154.167 94.5049 154.167C146.883 154.167 189 119.728 189 77.5825C189 35.4372 146.883 0 94.5049 0ZM94.5049 136.417C84.5961 136.417 74.828 134.891 65.4786 131.935L57.0514 129.3L49.8319 134.383C44.5533 138.125 37.2856 142.289 28.5362 145.107C31.2677 140.625 33.8592 135.585 35.8965 130.223L39.8304 119.868L32.1923 111.781C25.5358 104.651 17.4791 92.855 17.4791 77.2497C17.4791 44.6155 52.0174 18.0829 94.1938 18.0829C136.37 18.0829 170.909 44.6155 170.909 77.2497C170.909 109.884 137.03 136.417 94.5049 136.417Z" fill="#007092"/>
</svg>
