<svg width="178" height="158" viewBox="0 0 178 158" fill="none" xmlns="http://www.w3.org/2000/svg">
<path d="M177.953 78.8457C177.953 84.4004 173.318 88.7516 168.064 88.7516H158.174L158.39 138.188C158.39 139.021 158.328 139.855 158.236 140.688V145.656C158.236 152.476 152.704 158 145.874 158H140.929C140.589 158 140.249 158 139.909 157.969C139.476 158 139.043 158 138.611 158H128.566H121.149C114.319 158 108.787 152.476 108.787 145.656V138.25V118.5C108.787 113.038 104.368 108.625 98.8973 108.625H79.1178C73.6476 108.625 69.2281 113.038 69.2281 118.5V138.25V145.656C69.2281 152.476 63.696 158 56.866 158H49.4487H39.5898C39.1262 158 38.6627 157.969 38.1991 157.938C37.8282 157.969 37.4574 158 37.0865 158H32.1416C25.3115 158 19.7795 152.476 19.7795 145.656V111.094C19.7795 110.816 19.7795 110.507 19.8104 110.23V88.7516H9.88973C4.32676 88.7516 0 84.4313 0 78.8457C0 76.0684 0.927162 73.5996 3.09054 71.4395L82.332 2.46875C84.4954 0.308594 86.9678 0 89.1312 0C91.2946 0 93.767 0.617188 95.6213 2.16016L174.554 71.4395C177.026 73.5996 178.262 76.0684 177.953 78.8457Z" fill="#007092"/>
</svg>
