<svg width="188" height="158" viewBox="0 0 188 158" fill="none" xmlns="http://www.w3.org/2000/svg">
<path d="M18.1935 36.4615C28.2379 36.4615 36.3871 28.2957 36.3871 18.2308C36.3871 8.16587 28.2379 0 18.1935 0C8.14919 0 0 8.16587 0 18.2308C0 28.2957 8.14919 36.4615 18.1935 36.4615ZM66.7097 6.07692C60.0008 6.07692 54.5806 11.5082 54.5806 18.2308C54.5806 24.9534 60.0008 30.3846 66.7097 30.3846H175.871C182.58 30.3846 188 24.9534 188 18.2308C188 11.5082 182.58 6.07692 175.871 6.07692H66.7097ZM66.7097 66.8462C60.0008 66.8462 54.5806 72.2774 54.5806 79C54.5806 85.7226 60.0008 91.1538 66.7097 91.1538H175.871C182.58 91.1538 188 85.7226 188 79C188 72.2774 182.58 66.8462 175.871 66.8462H66.7097ZM66.7097 127.615C60.0008 127.615 54.5806 133.047 54.5806 139.769C54.5806 146.492 60.0008 151.923 66.7097 151.923H175.871C182.58 151.923 188 146.492 188 139.769C188 133.047 182.58 127.615 175.871 127.615H66.7097ZM18.1935 158C28.2379 158 36.3871 149.834 36.3871 139.769C36.3871 129.704 28.2379 121.538 18.1935 121.538C8.14919 121.538 0 129.704 0 139.769C0 149.834 8.14919 158 18.1935 158ZM36.3871 79C36.3871 68.9351 28.2379 60.7692 18.1935 60.7692C8.14919 60.7692 0 68.9351 0 79C0 89.0649 8.14919 97.2308 18.1935 97.2308C28.2379 97.2308 36.3871 89.0649 36.3871 79Z" fill="#007092"/>
</svg>
