<svg width="106" height="141" viewBox="0 0 106 141" fill="none" xmlns="http://www.w3.org/2000/svg">
<path d="M59.5422 137.832C73.7031 120.106 106 77.1438 106 53.0122C106 23.745 82.2604 0 53 0C23.7396 0 0 23.745 0 53.0122C0 77.1438 32.2969 120.106 46.4578 137.832C49.8531 142.056 56.1469 142.056 59.5422 137.832V137.832ZM53 70.6829C43.2557 70.6829 35.3333 62.7587 35.3333 53.0122C35.3333 43.2657 43.2557 35.3415 53 35.3415C62.7443 35.3415 70.6667 43.2657 70.6667 53.0122C70.6667 62.7587 62.7443 70.6829 53 70.6829Z" fill="white"/>
</svg>
