<svg width="97" height="141" viewBox="0 0 97 141" fill="none" xmlns="http://www.w3.org/2000/svg">
<path d="M48.5 0C33.8949 0 22.0455 11.8418 22.0455 26.4375V70.5C22.0455 85.0957 33.8949 96.9375 48.5 96.9375C63.1051 96.9375 74.9545 85.0957 74.9545 70.5V26.4375C74.9545 11.8418 63.1051 0 48.5 0ZM13.2273 59.4844C13.2273 55.8217 10.2787 52.875 6.61364 52.875C2.94858 52.875 0 55.8217 0 59.4844V70.5C0 95.0373 18.2426 115.306 41.8864 118.528V127.781H28.6591C24.994 127.781 22.0455 130.728 22.0455 134.391C22.0455 138.053 24.994 141 28.6591 141H48.5H68.3409C72.006 141 74.9545 138.053 74.9545 134.391C74.9545 130.728 72.006 127.781 68.3409 127.781H55.1136V118.528C78.7574 115.306 97 95.0373 97 70.5V59.4844C97 55.8217 94.0514 52.875 90.3864 52.875C86.7213 52.875 83.7727 55.8217 83.7727 59.4844V70.5C83.7727 89.9701 67.9827 105.75 48.5 105.75C29.0173 105.75 13.2273 89.9701 13.2273 70.5V59.4844Z" fill="white"/>
</svg>
