<svg width="146" height="146" viewBox="0 0 146 146" fill="none" xmlns="http://www.w3.org/2000/svg">
<path d="M118.631 59.3038C118.631 72.3906 114.382 84.4794 107.224 94.2874L143.327 130.411C146.891 133.975 146.891 139.763 143.327 143.327C139.762 146.891 133.973 146.891 130.408 143.327L94.3058 107.203C84.4959 114.388 72.4047 118.608 59.3154 118.608C26.5493 118.608 0 92.0635 0 59.3038C0 26.5442 26.5493 0 59.3154 0C92.0814 0 118.631 26.5442 118.631 59.3038ZM59.3154 100.36C81.9864 100.36 100.38 81.9704 100.38 59.3038C100.38 36.6372 81.9864 18.2473 59.3154 18.2473C36.6444 18.2473 18.2509 36.6372 18.2509 59.3038C18.2509 81.9704 36.6444 100.36 59.3154 100.36Z" fill="#007092"/>
</svg>
